<svg xmlns="http://www.w3.org/2000/svg" width="128" height="128" viewBox="0 0 128 128" shape-rendering="crispEdges"><rect width="128" height="128" fill="#2a1d07"/><path d="M58 8h12v14h10v12H70v42h14v12H70v30H58V88H44V76h14V34H48V22h10z" fill="#fff0a3"/><path d="M62 12h4v64h-4z" fill="#ffffff"/><path d="M38 82h52v12H38z" fill="#f59e0b"/><path d="M52 98h24v20H52z" fill="#5b3a00"/><path d="M48 116h32v8H48z" fill="#ffd76a"/><path d="M34 20h12v12H34zM82 20h12v12H82zM58 0h12v8H58z" fill="#ffd76a"/></svg>